# xmcd
#
# Track frame offsets: 
#        151
#        17003
#        31028
#        44978
#        63229
#        78078
#        91803
#        111915
#        124878
#        142053
#        155759
#        173278
#
# Disc length: 2519 seconds
#
# Revision: 0
# Processed by: cddbd v1.4PL0 Copyright (c) Steve Scherf et al.
# Submitted via: ExactAudioCopy v0.90b2
#
DISCID=9609d50c
DTITLE=Janie Frickie - Bouncin' Back
DYEAR=1900
DGENRE=Country
TTITLE0=If You Keep Building Fences
TTITLE1=Quilt Of Dreams
TTITLE2=Bouncin' Back
TTITLE3=Our Love's Worth Fighting For
TTITLE4=In Here
TTITLE5=Pick A Lane
TTITLE6=It's Not Me
TTITLE7=Tender Too Much
TTITLE8=No Turning Back
TTITLE9=Any Other Stone
TTITLE10=Love Forever More
TTITLE11=See-Saw Ride
EXTD=
EXTT0=
EXTT1=
EXTT2=
EXTT3=
EXTT4=
EXTT5=
EXTT6=
EXTT7=
EXTT8=
EXTT9=
EXTT10=
EXTT11=
PLAYORDER=
